<svg width="47" height="57" viewBox="0 0 47 57" fill="none" xmlns="http://www.w3.org/2000/svg">
<path d="M35.6275 16.5009C32.7268 14.83 29.0157 15.8196 27.3412 18.7168L15.1559 39.808C13.4814 42.7052 14.4747 46.4055 17.3754 48.08C20.2762 49.7545 23.9873 48.7613 25.6618 45.8641L37.847 24.7729C39.5215 21.8757 38.5283 18.1718 35.6275 16.5009Z" fill="#FFDC3C"/>
<path d="M43.967 34.0704C41.0663 32.3995 37.3551 33.3892 35.6807 36.2863C34.0062 39.1835 29.1399 46.9765 29.1399 46.9765C27.4655 49.8737 28.4587 53.5741 31.3594 55.2485C34.2602 56.923 37.9713 55.9298 39.6458 53.0326L46.1865 42.3424C47.861 39.4453 46.8678 35.7413 43.967 34.0704Z" fill="#FFDC3C"/>
<path d="M11.3194 38.3344L28.2152 9.08408C29.8897 6.18691 28.8965 2.48297 25.9957 0.812076C23.0949 -0.85882 19.3838 0.130806 17.7093 3.02798L0.813521 32.2783C-0.86096 35.1755 0.132256 38.8758 3.03302 40.5503C5.93378 42.2248 9.64489 41.2316 11.3194 38.3344Z" fill="#FFDC3C"/>
</svg>
